PathFileType	4	(X/Y/Z)	pose_F01_0-92.trc
DataRate	CameraRate	NumFrames	NumMarkers	Units	OrigDataRate	OrigDataStartFrame	OrigNumFrames
30	30	7	21	m	30	80	92
Frame#	Time	CHip			RHip			RKnee			RAnkle			RBigToe			RSmallToe			RHeel			LHip			LKnee			LAnkle			LBigToe			LSmallToe			LHeel			Neck			Nose			RShoulder			RElbow			RWrist			LShoulder			LElbow			LWrist			
		X1	Y1	Z1	X2	Y2	Z2	X3	Y3	Z3	X4	Y4	Z4	X5	Y5	Z5	X6	Y6	Z6	X7	Y7	Z7	X8	Y8	Z8	X9	Y9	Z9	X10	Y10	Z10	X11	Y11	Z11	X12	Y12	Z12	X13	Y13	Z13	X14	Y14	Z14	X15	Y15	Z15	X16	Y16	Z16	X17	Y17	Z17	X18	Y18	Z18	X19	Y19	Z19	X20	Y20	Z20	X21	Y21	Z21	
80	2.6666666666666665	-0.10337474984847167	1.8826731535322077	-0.4745974532634361	-0.11510362045003394	1.8794410837494506	-0.4109617856625091	-0.1333342989409507	1.7396130978587196	-0.37565767641619874	-0.19217484628224255	1.601807065392978	-0.41107263976794595										-0.08947713998102581	1.8845799763488833	-0.5344581866978373	-0.09253385771265882	1.740050663388144	-0.50501514306268	-0.0789864171574237	1.6108643662465463	-0.47110818594737763	-0.10359998588312422	1.5896777747985826	-0.5115721087981038	-0.08978143327271651	1.595916822845838	-0.5270489562320215	-0.07699423194673431	1.602239237188563	-0.46313178946529265	-0.10333692283998053	2.030752045254882	-0.48300113159299046	-0.1358597713694738	2.0868985016800585	-0.5102921780430636	-0.12017147523890381	2.026999304878779	-0.4029515654427877	-0.13688158682357515	1.9584692145687244	-0.4053730752503852	-0.17647942783056803	2.0060428359932714	-0.42982318371305256	-0.08549188234516726	2.0338903889527136	-0.5661430377848051	-0.09497204984903172	1.963930583947749	-0.584228441930637	-0.12420761555217837	2.011166717062125	-0.6039750158674041
81	2.7	-0.10399522901568864	1.886617154844645	-0.47862671224367753	-0.1158811295468586	1.8846162797067032	-0.4153837196280599	-0.1323971056135867	1.7418209677899528	-0.38165949775879876	-0.19217484628224255	1.601807065392978	-0.41107263976794595										-0.08733884096784314	1.8884735435052902	-0.5374616129777929	-0.09032962441054669	1.7440356788300944	-0.5080705047062481	-0.07872613915232375	1.612107324770731	-0.4715698904497196	-0.10353718465344364	1.589464832665622	-0.5114381471095136	-0.08952011959178068	1.5971653357348543	-0.5275167109887425	-0.07580485190146942	1.6033948073388131	-0.4602480943602153	-0.10136189719873342	2.030914507047068	-0.4853103248074302	-0.13193970588257645	2.0879401461845974	-0.515307063414246	-0.1164576989064462	2.029685416071734	-0.4087667071686027	-0.14459013027679998	1.9621833189461382	-0.4063441148635841	-0.17358558294317578	2.0097988900561714	-0.4210228931640794	-0.08346286184929502	2.035101539501373	-0.568328150504163	-0.0977707888752771	1.9649893842140351	-0.5851805132698692	-0.12718804815937182	2.0168028393476694	-0.5963390712231615
82	2.7333333333333334	-0.10491215565022356	1.8866075078397195	-0.4819163782296126	-0.11869210812033035	1.8848947239019918	-0.42545487256255443	-0.13523513676435825	1.7393787733914448	-0.3825299444089276	-0.19217484628224255	1.601807065392978	-0.41107263976794595										-0.08945897888319998	1.887141268188436	-0.5351738918311914	-0.0901540079974133	1.7427221994151068	-0.5082580768354207	-0.08146621470288049	1.6118928875349225	-0.47266515047058577	-0.1038591120470764	1.5909141017976831	-0.5113663060693429	-0.09158177414778347	1.597082877801029	-0.5253702228810687	-0.07646860135296682	1.6019852018864733	-0.4640646986749779	-0.09935999728976616	2.0310039853469886	-0.48766696775556884	-0.1310111070471863	2.087498343437903	-0.5123682445781621	-0.11440388582988194	2.0275008970035895	-0.40984085088266975	-0.14820827593881541	1.9674407531408271	-0.4110945097192321	-0.1757415060837172	2.0168150781079	-0.4299070289847542	-0.08134494896330408	2.0351932940368562	-0.5707557993929033	-0.09751628223599966	1.9676371934060994	-0.5853680163631308	-0.1295855307420632	2.020135808340156	-0.5857562309663066
83	2.7666666666666666	-0.10505415432626483	1.885409550546362	-0.4819203655085652	-0.11886885048813854	1.8836223287293148	-0.4254441601732547	-0.13617771890351754	1.7385627162776776	-0.38593854308448866	-0.19217484628224255	1.601807065392978	-0.41107263976794595										-0.08828255065542405	1.8872824774546297	-0.5406022557220012	-0.09136824224839307	1.7426688544795446	-0.5111055344466784	-0.08094797133566625	1.613454812729239	-0.4692257262720954	-0.10381711523787394	1.5907959359703356	-0.5113558623906321	-0.09157986237051312	1.5970987326786292	-0.5253829819279398	-0.07723412460323727	1.6035485862144578	-0.4628554322452019	-0.09736542584397863	2.0299368357179572	-0.48933594795080776	-0.12813551896307335	2.087319620998294	-0.511454150631709	-0.11246421734802896	2.0265095893259346	-0.41151423762176687	-0.1503029358621431	1.9696768548047527	-0.40999448360238	-0.17368098911976446	2.021995135518803	-0.4244400794962534	-0.08053269814080521	2.03505826099993	-0.5677490649519165	-0.10145483745869216	1.9721860112467722	-0.5810040212476085	-0.12717278337424748	2.03114684946344	-0.5896299934729596
84	2.8	-0.10501268476482453	1.8840991968004341	-0.48141280583560464	-0.11802808584389647	1.8809744673204747	-0.42150585959949205	-0.13627915578254862	1.738913827812418	-0.3859278246074954	-0.19217484628224255	1.601807065392978	-0.41107263976794595										-0.089482591926785	1.8870856067513144	-0.5351813392697662	-0.09121840757949734	1.741212899150282	-0.5110934597548439	-0.08201907570923389	1.6122194184143972	-0.47186161949546357	-0.10356407435275286	1.5895166365459052	-0.5115883557610886	-0.0895379418088129	1.597167781481834	-0.5276309125921406	-0.0792163111370122	1.6035362628263932	-0.46064191373748076	-0.0973676130928385	2.031101148848936	-0.489904080644411	-0.12612345930194263	2.0874707248232762	-0.5137203454236432	-0.11250737185821424	2.0274098847543573	-0.41212600858054066	-2.1719869560199663	1.910538734183641	1.962212664540239	-0.17272652655523762	2.029465295582245	-0.42361374124774925	-0.08054246634415532	2.0350691174436726	-0.5677892494552231	-0.1002771040206786	1.9723274329469764	-0.5865831194188826	-0.11755300974651128	2.038442054499216	-0.5960393878226371
85	2.8333333333333335	-0.10914311157108791	1.8826489915071316	-0.4768267486481942	-0.12168877365660723	1.8798071053897258	-0.4255423095271774	-0.13915527152576082	1.7388117830696717	-0.3872264578062339	-0.19217484628224255	1.601807065392978	-0.41107263976794595										-0.09252487224914172	1.8858575352042934	-0.535774012930081	-0.0957289649736342	1.7431970929537	-0.5105816324631588	-0.0815109090456866	1.6120026128290015	-0.47264471715726897	-0.10365649452513241	1.586923789331422	-0.5111694234177179	-0.0895503795769017	1.5945104148025386	-0.5272564886459065	-0.07921680537415776	1.6058934772557092	-0.4612773566994084	-0.0993419943247171	2.0297287101172317	-0.4871169693852623	-0.12537740574912157	2.0859859811925663	-0.5106814998178348	-0.11430140014082145	2.0265512206570873	-0.4180395144284856	-0.15279290892256417	1.9760412220775703	-0.41160251265135905	-0.16555980534385623	2.0344270538573253	-0.41884039661854017	-0.08141956662310303	2.0340672104936757	-0.5707821239386716	-0.10933827170057489	1.9733320460568244	-0.5804612012082534	-0.11748131357374308	2.0389694679815022	-0.5959602969413887
86	2.8666666666666667	-0.10920214427213953	1.8826406127767576	-0.47682232931887014	-0.12166721147929291	1.8784684002281506	-0.42522289946017044	-0.14015325065257037	1.7382172477621387	-0.39066115711352395	-0.19217484628224255	1.601807065392978	-0.41107263976794595										-0.09248426701343027	1.8845479626341615	-0.5355223354436697	-0.09401590408464865	1.7421737559268533	-0.512576241781373	-0.08075925622913138	1.6121640311792746	-0.4693815435332114	-0.10341195430089693	1.5854319685574887	-0.5114268579986311	-0.09157792453631039	1.59433409199434	-0.5249209371037935	-0.0797258257536686	1.6061379887431555	-0.46035611771559626	-0.09939429015075799	2.030870868052636	-0.48778530925471036	-0.1252813059009473	2.087088916123391	-0.510618269024634	-0.11516020272017544	2.0269629911780673	-0.4212902872510411	-0.15270721274754298	1.9762508449124725	-0.41109152820523986	-0.1700588034686103	2.037259806473622	-0.4341166617772972	-0.08135992014385647	2.0351665197267796	-0.5707873238895685	-0.11415406970229933	1.9763061215741147	-0.5789163881825328	-0.11676946826113573	2.03903238104995	-0.5925822854106519
